<?xml version="1.0" encoding="utf-8"?>
<!-- Generated by IcoMoon.io -->
<!DOCTYPE svg PUBLIC "-//W3C//DTD SVG 1.1//EN" "http://www.w3.org/Graphics/SVG/1.1/DTD/svg11.dtd">
<svg version="1.1" xmlns="http://www.w3.org/2000/svg" xmlns:xlink="http://www.w3.org/1999/xlink" width="32" height="32" viewBox="0 0 32 32">
<path fill="none" stroke="#000" stroke-width="1.0667" stroke-miterlimit="4" stroke-linecap="round" stroke-linejoin="round" d="M30.402 31.467h-28.801c-0.589 0-1.066-0.477-1.066-1.066v-23.467h30.935v23.467c0 0.589-0.477 1.066-1.066 1.066v0z"></path>
<path fill="none" stroke="#000" stroke-width="1.0667" stroke-miterlimit="4" stroke-linecap="round" stroke-linejoin="round" d="M31.468 6.934h-30.935v-5.334c0-0.589 0.478-1.066 1.066-1.066h28.801c0.589 0 1.066 0.478 1.066 1.066v5.334z"></path>
<path fill="none" stroke="#000" stroke-width="1.0667" stroke-miterlimit="4" stroke-linecap="round" stroke-linejoin="round" d="M5.867 3.733c0-0.884-0.716-1.6-1.6-1.6s-1.6 0.716-1.6 1.6c0 0.884 0.716 1.6 1.6 1.6s1.6-0.716 1.6-1.6v0z"></path>
<path fill="none" stroke="#000" stroke-width="1.0667" stroke-miterlimit="4" stroke-linecap="round" stroke-linejoin="round" d="M11.201 3.733c0-0.884-0.716-1.6-1.6-1.6s-1.6 0.716-1.6 1.6c0 0.884 0.716 1.6 1.6 1.6s1.6-0.716 1.6-1.6v0z"></path>
<path fill="none" stroke="#000" stroke-width="1.0667" stroke-miterlimit="4" stroke-linecap="round" stroke-linejoin="round" d="M16.535 3.733c0-0.884-0.716-1.6-1.6-1.6s-1.6 0.716-1.6 1.6c0 0.884 0.716 1.6 1.6 1.6s1.6-0.716 1.6-1.6v0z"></path>
<path fill="none" stroke="#000" stroke-width="1.0667" stroke-miterlimit="4" stroke-linecap="round" stroke-linejoin="round" d="M3.735 9.6h4.266"></path>
<path fill="none" stroke="#000" stroke-width="1.0667" stroke-miterlimit="4" stroke-linecap="round" stroke-linejoin="round" d="M3.735 16h4.266"></path>
<path fill="none" stroke="#000" stroke-width="1.0667" stroke-miterlimit="4" stroke-linecap="round" stroke-linejoin="round" d="M5.335 12.8h7.466"></path>
<path fill="none" stroke="#000" stroke-width="1.0667" stroke-miterlimit="4" stroke-linecap="round" stroke-linejoin="round" d="M3.735 19.2h9.066"></path>
<path fill="none" stroke="#000" stroke-width="1.0667" stroke-miterlimit="4" stroke-linecap="round" stroke-linejoin="round" d="M5.335 22.4h5.866"></path>
<path fill="none" stroke="#000" stroke-width="1.0667" stroke-miterlimit="4" stroke-linecap="round" stroke-linejoin="round" d="M5.335 28.8h5.866"></path>
<path fill="none" stroke="#000" stroke-width="1.0667" stroke-miterlimit="4" stroke-linecap="round" stroke-linejoin="round" d="M6.935 25.6h7.466"></path>
<path fill="none" stroke="#000" stroke-width="1.0667" stroke-miterlimit="4" stroke-linecap="round" stroke-linejoin="round" d="M29.335 24v-9.6c0-0.589-0.477-1.066-1.066-1.066h-9.6c-0.589 0-1.066 0.477-1.066 1.066v3.2l-1.6 1.6 1.6 1.6v3.2c0 0.589 0.477 1.066 1.066 1.066h9.6c0.589 0 1.066-0.477 1.066-1.066v0z"></path>
<path fill="none" stroke="#000" stroke-width="1.0667" stroke-miterlimit="4" stroke-linecap="round" stroke-linejoin="round" d="M21.868 22.4c-0.585 0-1.066-0.481-1.066-1.066v-1.066l-1.066-1.074 1.066-1.060v-1.066c0-0.585 0.481-1.066 1.066-1.066"></path>
<path fill="none" stroke="#000" stroke-width="1.0667" stroke-miterlimit="4" stroke-linecap="round" stroke-linejoin="round" d="M25.068 22.4c0.585 0 1.066-0.481 1.066-1.066v-1.066l1.066-1.066-1.066-1.066v-1.066c0-0.585-0.481-1.066-1.066-1.066"></path>
</svg>
