<?xml version="1.0" encoding="utf-8"?>
<!-- Generator: Adobe Illustrator 21.0.0, SVG Export Plug-In . SVG Version: 6.00 Build 0)  -->
<svg version="1.1" id="Слой_1" xmlns="http://www.w3.org/2000/svg" xmlns:xlink="http://www.w3.org/1999/xlink" x="0px" y="0px"
	 viewBox="0 0 91.6 97" style="enable-background:new 0 0 91.6 97;" xml:space="preserve">
<g>
	<g>
		<path d="M89.4,67.3L89,68.4C82,82,69.7,90.3,52,90.7c-8.3,0.2-16.1-1.9-21.3-4.2c-11.1-5-20.4-14.2-25.5-24.1
			C-2,48.2-3.4,28.6,11.8,13.9c0.2,0-1.8,3.2-1.6,3.2l-0.4,1.4C-1.1,52.7,32.6,82,65.4,78.7C73.2,77.9,83.3,73.5,89.4,67.3z"/>
		<path d="M90.7,24.6c-1.3,2.9-8.7,8.5-11.9,9.2c-12.9,2.7-21.2-3.4-25.5-10.3c-0.6-1-1.8-3.9-2-4.6C49.6,13.1,50.4,4.5,55.4,0
			c-1.5,4.2-1.7,9.2-0.9,12.4c0.5,1.9,1.9,5.3,3.4,7.5c2.7,3.9,4.4,4.8,7.8,6.9c1.5,0.9,3.2,1.7,3.9,1.9
			C72.8,29.6,79.7,32.1,90.7,24.6z"/>
		<path d="M69.6,53.2c8.2,0.1,16.9-3.8,22-9.2c-4.5,11.3-17.4,18.6-34.7,16.3c-14.5-1.9-28.3-16.5-29.8-31.2
			c-1-10.6,2.7-17,8.8-24.7c-2.1,4-2.9,7.1-3.1,9.1C30.5,36.5,51.2,53,69.6,53.2z"/>
	</g>
</g>
<path d="M221.6,152.4"/>
</svg>
