<?xml version="1.0" encoding="utf-8"?>
<!-- Generator: Adobe Illustrator 21.0.0, SVG Export Plug-In . SVG Version: 6.00 Build 0)  -->
<svg version="1.1" id="Ğ¡Ğ»Ğ¾Ğ¹_1" xmlns="http://www.w3.org/2000/svg" xmlns:xlink="http://www.w3.org/1999/xlink" x="0px" y="0px"
	 viewBox="0 0 100 91" style="enable-background:new 0 0 100 91;" xml:space="preserve">
<title>big4_outline</title>
<path d="M24,69.6c0,1.1-0.9,2-2,2H6c-1.1,0-2-0.9-2-2s0.9-2,2-2h16C23.1,67.6,24,68.4,24,69.6z M95.4,68.1L84.9,57.6
	c-0.8-0.8-2-0.8-2.8,0s-0.8,2,0,2.8l7.1,7.1H47.9c-12.6,0-22.8-10.2-22.8-22.8c0-12.6,10.2-22.8,22.8-22.8
	c12.6,0,22.8,10.2,22.8,22.8c0,4.1-1.1,8.1-3.2,11.6c-0.2,0.3-0.4,0.6-0.6,0.9c-0.6,0.9-0.4,2.2,0.5,2.8c0.9,0.6,2.2,0.4,2.8-0.5
	c0,0,0,0,0-0.1c0.2-0.4,0.5-0.7,0.7-1.1c7.5-12.7,3.3-29.2-9.4-36.7s-29.2-3.3-36.7,9.4s-3.3,29.2,9.4,36.7
	c4.1,2.4,8.8,3.7,13.7,3.7h41.2L82,78.7c-0.8,0.8-0.8,2,0,2.8s2,0.8,2.8,0L95.4,71C96.2,70.2,96.2,69,95.4,68.1
	C95.4,68.2,95.4,68.2,95.4,68.1L95.4,68.1z"/>
</svg>
