<?xml version="1.0" encoding="utf-8"?>
<!-- Generated by IcoMoon.io -->
<!DOCTYPE svg PUBLIC "-//W3C//DTD SVG 1.1//EN" "http://www.w3.org/Graphics/SVG/1.1/DTD/svg11.dtd">
<svg version="1.1" xmlns="http://www.w3.org/2000/svg" xmlns:xlink="http://www.w3.org/1999/xlink" width="834" height="1024" viewBox="0 0 834 1024">
<path fill="#000" d="M798.077 1023.978h-762.152c-16.29 0-29.54-13.251-29.54-29.54v-964.883c0-16.29 13.251-29.54 29.54-29.54h762.152c16.29 0 29.54 13.251 29.54 29.54v964.883c0 16.292-13.255 29.54-29.54 29.54zM35.926 11.829c-9.773 0-17.724 7.95-17.724 17.724v964.883c0 9.774 7.952 17.724 17.724 17.724h762.152c9.774 0 17.724-7.95 17.724-17.724v-964.883c0-9.774-7.95-17.724-17.724-17.724h-762.152z"></path>
<path fill="#000" d="M47.741 746.499h738.519v11.816h-738.519v-11.816z"></path>
<path fill="#000" d="M260.248 354.68c28.076 0 32.756-15.208 32.756-29.245 0-10.529-1.56-23.396-3.12-34.314-1.949-10.919-3.12-28.855-3.12-39.382 0-35.875 23.396-51.081 56.538-51.081h8.187v21.446h-7.017c-23.005 0.391-30.804 12.088-30.804 33.534 0 8.969 1.169 25.346 2.73 34.704 1.169 9.359 2.73 21.057 2.73 31.195 0.391 25.346-10.529 37.823-28.076 42.503v0.779c17.547 4.289 28.466 17.547 28.076 42.503 0 10.529-1.56 22.226-2.73 31.586-1.56 9.747-2.73 25.346-2.73 34.704 0 22.226 8.969 33.532 30.804 34.314h7.017v21.446h-8.187c-31.974 0-56.538-14.427-56.538-53.809 0-10.138 1.169-27.685 3.12-38.213 1.56-10.919 3.12-23.396 3.12-33.924 0-12.479-4.68-28.855-32.756-28.855v-19.889z"></path>
<path fill="#000" d="M377.23 524.689c8.577-23.396 19.107-64.727 23.396-93.192l37.823-3.898c-9.359 33.144-26.515 76.425-37.434 94.755l-23.787 2.338zM393.993 319.197c0-14.427 9.747-24.566 23.396-24.566s22.613 10.136 22.613 24.566c0 13.258-8.969 24.177-23.005 24.177-13.647 0-23.395-10.919-23.003-24.177z"></path>
<path fill="#000" d="M573.361 374.568c-27.685 0-32.365 16.377-32.365 28.855 0 10.529 1.56 23.005 3.12 33.924 1.56 10.529 3.12 28.076 3.12 38.213 0 39.381-24.566 47.569-56.538 47.569h-8.187v-15.208h7.017c21.446-0.779 30.804-12.088 30.804-34.314 0-9.359-1.557-24.955-2.73-34.704-1.56-9.359-3.12-21.054-3.12-31.586-0.391-24.955 10.919-38.213 28.466-42.503v-0.779c-17.547-4.68-28.855-17.156-28.466-42.503 0-10.138 1.56-21.836 3.12-31.195 1.171-9.359 2.73-25.735 2.73-34.704 0-21.446-8.186-33.144-30.804-33.534h-7.017v-21.446h7.799c33.532 0 56.928 15.208 56.928 51.081 0 10.529-1.56 28.466-3.12 39.382s-3.12 23.787-3.12 34.314c0 14.036 4.68 29.245 32.365 29.245v19.889z"></path>
<path fill="#000" d="M250.12 829.187h16.464v84.378c0 33.49-16.464 43.779-38.167 43.779-6.174 0-13.283-1.308-17.399-2.806l2.432-13.469c3.367 1.497 8.046 2.43 13.658 2.43 14.594 0 23.013-6.735 23.013-31.431v-82.88z"></path>
<path fill="#000" d="M291.464 935.456c7.296 4.49 17.961 8.234 29.186 8.234 16.651 0 26.379-8.795 26.379-21.516 0-11.785-6.735-18.522-23.948-25.069-20.393-7.11-33.114-18.15-33.114-35.736 0-19.458 16.276-34.050 40.784-34.050 12.723 0 22.264 2.993 27.877 5.987l-4.49 13.283c-4.115-2.247-12.535-5.987-23.948-5.987-17.214 0-23.759 10.29-23.759 18.895 0 11.785 7.671 17.587 25.071 24.322 21.328 8.417 32.181 18.519 32.181 37.045 0 19.459-14.405 36.483-44.154 36.483-12.347 0-25.631-3.742-32.366-8.233l4.302-13.659z"></path>
<path fill="#000" d="M493.709 892.050c0 41.908-26.753 65.294-58.556 65.294-34.052 0-56.691-26.753-56.691-64.361 0-38.726 24.135-65.855 58.935-65.855 35.92 0 56.313 28.439 56.313 64.922zM395.861 892.428c0 28.625 14.594 51.637 40.224 51.637 26.566 0 40.413-24.135 40.413-51.637 0-25.817-12.535-52.013-40.228-52.013-26.193 0-40.411 23.573-40.411 52.013z"></path>
<path fill="#000" d="M514.661 955.29v-126.1h18.149l40.228 63.612c9.168 14.968 16.651 28.253 22.638 41.16l0.372-0.187c-1.497-16.839-1.868-32.182-1.868-51.64v-52.948h15.341v126.1h-16.464l-40.038-63.985c-8.792-14.032-17.214-28.437-23.575-42.096l-0.562 0.187c0.937 15.902 1.308 31.059 1.308 52.012v53.881h-15.529z"></path>
</svg>
