<?xml version="1.0" encoding="utf-8"?>
<!-- Generated by IcoMoon.io -->
<!DOCTYPE svg PUBLIC "-//W3C//DTD SVG 1.1//EN" "http://www.w3.org/Graphics/SVG/1.1/DTD/svg11.dtd">
<svg version="1.1" xmlns="http://www.w3.org/2000/svg" xmlns:xlink="http://www.w3.org/1999/xlink" width="1024" height="1024" viewBox="0 0 1024 1024">
<g id="icomoon-ignore">
</g>
<path fill="#000" d="M513.682 0.015c-283.307 0-512 228.693-512 512 0 225.28 146.773 416.427 351.573 484.693 27.307 3.413 34.133-10.24 34.133-23.893v-88.747c-143.36 30.72-174.080-68.267-174.080-68.267-23.893-58.027-58.027-75.093-58.027-75.093-47.787-30.72 3.413-30.72 3.413-30.72 51.2 3.413 78.507 51.2 78.507 51.2 44.373 78.507 119.467 54.613 150.187 40.96 3.413-34.133 17.067-54.613 34.133-68.267-112.64-13.653-232.107-58.027-232.107-252.587 0-54.613 20.48-102.4 51.2-136.533-6.827-13.653-23.893-64.853 3.413-136.533 0 0 44.373-13.653 139.947 51.2 40.96-10.24 85.333-17.067 129.707-17.067s88.747 6.827 129.707 17.067c98.987-64.853 139.947-51.2 139.947-51.2 27.307 71.68 10.24 122.88 3.413 136.533 34.133 34.133 51.2 81.92 51.2 136.533 0 197.973-119.467 238.933-232.107 252.587 17.067 17.067 34.133 47.787 34.133 95.573v139.947c0 13.653 10.24 30.72 34.133 23.893 204.8-68.267 348.16-259.413 348.16-484.693 3.413-279.893-225.28-508.587-508.587-508.587z"></path>
</svg>
