<svg xmlns="http://www.w3.org/2000/svg" xmlns:xlink="http://www.w3.org/1999/xlink" version="1.1" x="0px" y="0px" viewBox="0 0 100 100" style="enable-background:new 0 0 100 100;" xml:space="preserve"><path d="M14.1,9.2v81.7h71.7v-66L70.2,9.2H14.1z M70.8,12.6l11.9,11.9H70.8V12.6z M16.1,88.8V11.2h52.7v15.3h15.1v62.3H16.1z"></path><path d="M43,57.3c0,1-0.1,1.8-0.2,2.3s-0.5,0.8-0.9,1.1c-0.4,0.3-0.9,0.4-1.5,0.4c-0.8,0-1.4-0.3-1.9-0.8c-0.5-0.5-0.7-1.4-0.8-2.8  l-2.1,0.3c0,1.8,0.4,3.1,1.2,4.1s2,1.4,3.6,1.4c1.1,0,2-0.2,2.8-0.7s1.4-1.1,1.7-1.9c0.4-0.8,0.5-2,0.5-3.5V44.9H43V57.3z"></path><path d="M59.7,53.5c-0.7-0.3-2-0.7-4-1.1c-1.9-0.4-3.1-0.9-3.6-1.3c-0.5-0.4-0.7-0.9-0.7-1.6c0-0.7,0.3-1.4,1-1.9  c0.7-0.5,1.7-0.8,3.1-0.8c1.4,0,2.4,0.3,3.1,0.9s1.1,1.4,1.2,2.6l2.3-0.2c0-1.1-0.3-2-0.9-2.8c-0.5-0.8-1.3-1.5-2.4-1.9  c-1-0.4-2.2-0.6-3.5-0.6c-1.2,0-2.3,0.2-3.3,0.6s-1.7,1-2.3,1.8s-0.8,1.6-0.8,2.5c0,0.8,0.2,1.6,0.6,2.2s1.1,1.2,1.9,1.7  c0.7,0.4,1.8,0.7,3.5,1.1c1.7,0.4,2.7,0.7,3.2,0.9c0.8,0.3,1.3,0.6,1.6,1.1c0.3,0.4,0.5,0.9,0.5,1.5c0,0.6-0.2,1.1-0.5,1.5  s-0.9,0.8-1.6,1.1c-0.7,0.3-1.5,0.4-2.4,0.4c-1,0-1.9-0.2-2.8-0.5s-1.4-0.8-1.8-1.4s-0.6-1.3-0.7-2.2l-2.2,0.2c0,1.2,0.4,2.3,1,3.2  c0.6,1,1.5,1.7,2.6,2.1s2.5,0.7,4.1,0.7c1.3,0,2.4-0.2,3.5-0.7c1-0.5,1.8-1.1,2.4-2c0.5-0.8,0.8-1.7,0.8-2.7c0-1-0.2-1.8-0.7-2.6  C61.5,54.6,60.8,53.9,59.7,53.5z"></path></svg>