<?xml version="1.0" encoding="utf-8"?>
<!-- Generator: Adobe Illustrator 21.0.0, SVG Export Plug-In . SVG Version: 6.00 Build 0)  -->
<svg version="1.1" id="Слой_1" xmlns="http://www.w3.org/2000/svg" xmlns:xlink="http://www.w3.org/1999/xlink" x="0px" y="0px"
	 viewBox="0 0 100 100.8" style="enable-background:new 0 0 100 100.8;" xml:space="preserve">
<style type="text/css">
	.st0{display:none;}
	.st1{display:inline;fill:#686868;}
</style>
<g class="st0">
	<rect x="-515" y="-1117" class="st1" width="1253" height="1253"/>
</g>
<g>
	<g>
		<g>
			<g>
				<path d="M50,18.8c-5,0-9-4-9-9s4-9,9-9s9,4,9,9S55,18.8,50,18.8z M50,3.8c-3.3,0-6,2.7-6,6s2.7,6,6,6s6-2.7,6-6S53.3,3.8,50,3.8
					z"/>
			</g>
			<g>
				<path d="M50,99.2c-5,0-9-4-9-9s4-9,9-9s9,4,9,9S55,99.2,50,99.2z M50,84.2c-3.3,0-6,2.7-6,6s2.7,6,6,6s6-2.7,6-6
					S53.3,84.2,50,84.2z"/>
			</g>
		</g>
		<g>
			<path d="M13.7,64.2c-5.7-14.6-2.1-31,8.9-41.9c0,0,0,0,0.1,0l2.3,3.6c0.8,1.2,2.6,1.2,3.3-0.1l5.5-10.6c0.7-1.3-0.3-2.8-1.8-2.8
				l-12,0.5c-1.5,0.1-2.3,1.7-1.5,2.9l2.4,3.8c0,0,0,0,0,0.1C8.7,31.4,4.7,49.4,10.9,65.3C15,75.8,23.1,84,33,88.4
				c0.8,0.3,1.7,0,2-0.8l0,0c0.3-0.8-0.1-1.6-0.8-1.9C25,81.5,17.5,73.9,13.7,64.2z"/>
			<path d="M79.1,80.3c12.2-11.7,16.3-29.7,10-45.6C85,24.2,76.9,16,67,11.6c-0.8-0.3-1.7,0-2,0.8l0,0c-0.3,0.8,0.1,1.6,0.8,1.9
				C75,18.5,82.5,26,86.3,35.8c5.7,14.6,2.1,31.1-8.9,41.9L75.1,74c-0.8-1.2-2.6-1.1-3.2,0.1l-5.6,10.7c-0.7,1.3,0.3,2.8,1.7,2.7
				L80.1,87c1.4-0.1,2.3-1.6,1.5-2.9L79.1,80.3z"/>
		</g>
	</g>
</g>
</svg>
