<?xml version="1.0" encoding="utf-8"?>
<!-- Generated by IcoMoon.io -->
<!DOCTYPE svg PUBLIC "-//W3C//DTD SVG 1.1//EN" "http://www.w3.org/Graphics/SVG/1.1/DTD/svg11.dtd">
<svg version="1.1" xmlns="http://www.w3.org/2000/svg" xmlns:xlink="http://www.w3.org/1999/xlink" width="29" height="32" viewBox="0 0 29 32">
<path fill="#000" d="M9.784 28.8h-3.004c-2.032 0-3.692-1.211-3.692-4.209v-4.958c0-1.79-2.377-1.99-3.090-1.99v-3.287c0.713 0 3.090-0.2 3.090-1.988v-4.987c0-2.997 1.575-4.18 3.692-4.18h3.004v3.286h-1.401c-1.745 0-1.863 1.066-1.863 1.844v4.643c-0.025 2.682-1.656 2.882-2.859 2.999v0.055c1.203 0.089 2.835 0.291 2.859 2.973v4.669c0 0.779 0.118 1.844 1.863 1.844h1.401v3.287z"></path>
<path fill="#000" d="M19.055 3.2h3.090c1.945 0 3.606 1.213 3.606 4.208v4.958c0 1.787 2.29 1.988 3.093 1.988v3.288c-0.803 0-3.093 0.2-3.093 1.99v4.987c0 2.997-1.574 4.18-3.69 4.18h-3.006v-3.286h1.402c1.747 0 1.86-1.066 1.86-1.844v-4.644c0.028-2.681 1.659-2.881 2.863-2.999v-0.055c-1.204-0.089-2.834-0.291-2.863-2.972v-4.669c0-0.779-0.114-1.844-1.86-1.844h-1.402v-3.286z"></path>
</svg>
