<?xml version="1.0" encoding="utf-8"?>
<!-- Generated by IcoMoon.io -->
<!DOCTYPE svg PUBLIC "-//W3C//DTD SVG 1.1//EN" "http://www.w3.org/Graphics/SVG/1.1/DTD/svg11.dtd">
<svg version="1.1" xmlns="http://www.w3.org/2000/svg" xmlns:xlink="http://www.w3.org/1999/xlink" width="819" height="1024" viewBox="0 0 819 1024">
<path fill="#000" d="M235.084 60.801h-218.015c-9.479 0-17.062 7.584-17.062 18.010v13.271c0 0 0 0.948 0 0.948v821.821c0 0 0 0.948 0 0.948v30.332c0 9.479 7.584 18.010 17.062 18.010h218.015c9.479 0 17.062-7.584 17.062-18.010v-65.405c0-9.479-7.584-18.010-17.062-18.010h-133.652v-701.439h133.652c9.479 0 17.062-7.584 17.062-18.010v-65.405c0-9.479-7.584-17.062-17.062-17.062z"></path>
<path fill="#000" d="M818.036 109.143c0 0 0-0.948 0 0v-31.281c0-9.479-7.584-18.010-17.062-18.010h-218.015c-9.479 0-17.062 7.584-17.062 18.010v65.405c0 9.479 7.584 18.010 17.062 18.010h133.652v700.491h-132.705c-9.479 0-17.062 7.584-17.062 18.010v65.405c0 9.479 7.584 18.010 17.062 18.010h218.015c9.479 0 17.062-7.584 17.062-18.010v-13.271c0 0 0-0.948 0-0.948v-821.821z"></path>
</svg>
